<svg width="153" height="38" viewBox="0 0 153 38" fill="none" xmlns="http://www.w3.org/2000/svg">
<g clip-path="url(#clip0_320_3938)">
<path d="M77.2182 19.0907V16.3748L76.9613 16.3511C74.9948 16.1379 73.4937 15.5694 72.5064 14.6615C71.7599 13.9667 71.3024 13.0351 71.1338 11.8745H77.0496V7.96629H71.1338V5.31348H66.5184V7.96629H60.4581V11.8745H66.3819C66.2294 13.0114 65.796 13.9351 65.0736 14.622C64.1023 15.53 62.5852 16.1142 60.5464 16.3432L60.2896 16.3748V20.504H60.5785C62.0314 20.4803 63.4842 20.1645 64.913 19.5645C66.5666 18.8697 67.8669 17.8828 68.798 16.6274C69.3278 17.338 69.9699 17.9775 70.7245 18.5144C71.2623 18.9092 71.8643 19.2487 72.5225 19.5408C70.9091 20.125 69.5606 21.0488 68.5171 22.2883C67.1686 23.8595 66.4863 25.7228 66.4863 27.8308C66.4863 30.4047 67.4736 32.568 69.4081 34.2497C71.182 35.813 73.3412 36.6104 75.8215 36.6104C78.3018 36.6104 80.4771 35.8209 82.2992 34.2497C84.2417 32.568 85.221 30.4126 85.221 27.8308C85.221 25.4543 84.3782 23.4174 82.7086 21.783C81.1995 20.2987 79.3453 19.3908 77.2102 19.0907H77.2182ZM79.2891 31.1626C78.3099 32.0706 77.162 32.5285 75.8938 32.5285C74.6255 32.5285 73.5178 32.0706 72.5305 31.1626C71.5191 30.231 71.0215 29.1414 71.0215 27.8308C71.0215 26.5202 71.5111 25.3991 72.5225 24.4753C73.5018 23.6068 74.6336 23.1726 75.8857 23.1726C77.1379 23.1726 78.3018 23.6147 79.2811 24.4674C80.2925 25.3991 80.7821 26.5044 80.7821 27.8308C80.7821 29.1572 80.2925 30.2231 79.2811 31.1626H79.2891Z" fill="white"/>
<path d="M82.0826 11.4167H77.6196V15.3249H82.0826V20.5279H86.409V6.82959H82.0826V11.4167Z" fill="white"/>
<path d="M108.973 22.7226H118.404V18.467H98.8427V11.3376H118.412V7.08203H94.5242V20.0303C94.5242 20.9935 94.7329 21.6646 95.1503 22.0752C95.5276 22.5015 96.1537 22.7147 96.9965 22.7147H103.988V29.4336H92.8306V33.3417H120.13V29.4336H108.973V22.7147V22.7226Z" fill="white"/>
<path d="M130.966 23.5122H126.8V31.1154C126.8 32.0786 127.001 32.7576 127.418 33.1997C127.812 33.6261 128.43 33.8392 129.257 33.8392H152.703V29.5521H130.974V23.5122H130.966Z" fill="white"/>
<path d="M151.66 17.5904V7.10547H126.8V11.3926H147.494V17.5904H125.885V21.8775H137.484V27.9727H142.011V21.8775H153V17.5904H151.66Z" fill="white"/>
<path d="M25.7103 28.3125C20.9263 27.7677 17.7316 22.0594 17.5309 15.2142C17.5149 14.9537 17.0894 9.43487 20.3885 3.63184C15.3075 5.16352 11.583 10.0902 11.583 15.9327C11.583 22.9911 17.0172 28.7152 23.7276 28.7152C24.6427 28.7152 25.5337 28.6046 26.4006 28.3993C25.9752 28.3599 25.7183 28.3046 25.7183 28.3046L25.7103 28.3125Z" fill="#159D50"/>
<path d="M26.9943 3.8213C27.0746 3.71076 27.1549 3.59233 27.2111 3.46601C27.8372 2.18697 27.3957 0.726347 26.2238 0.197363C25.3408 -0.205296 24.2893 0.0473529 23.5669 0.750033H23.5428C23.4786 0.821091 23.4144 0.900043 23.3501 0.978996C23.31 1.03426 23.2618 1.08953 23.2137 1.1448C18.0685 7.58735 18.6223 14.6852 18.6303 14.9773C18.831 21.5699 21.9053 27.065 26.5127 27.594C26.5127 27.594 27.8131 27.8782 29.3863 27.5466C31.8666 27.0176 37.5497 24.2938 37.4935 16.4143C37.4212 6.42674 30.3415 4.23185 26.9783 3.82919L26.9943 3.8213ZM28.5114 24.4201C28.5114 24.4201 25.4371 22.9832 24.8913 16.1064C24.4338 10.2875 26.3361 8.40846 26.4325 8.02948C26.4886 7.82421 30.1971 7.88737 32.9744 9.79803C35.246 11.3534 36.6988 14.5115 36.6908 16.6274C36.6426 25.4702 29.6031 25.5175 28.5114 24.4201Z" fill="#0C559C"/>
<path d="M37.638 29.7258C37.638 29.7258 37.622 29.7495 37.6139 29.7574C41.9484 30.3022 45.4241 31.0996 47.5512 32.0628C48.6027 29.4179 49.4616 25.8019 48.8515 21.6647C48.3539 19.3593 47.6636 17.3223 46.8689 15.538C44.4608 10.0192 40.9932 6.74266 38.7859 5.09254C38.7216 5.05307 38.6414 5.02148 38.5611 5.02148C38.3444 5.02148 38.1598 5.20308 38.1598 5.41625C38.1598 5.4952 38.1919 5.56626 38.232 5.62942C38.232 5.62942 38.2641 5.67679 38.2802 5.70048C38.2882 5.77154 38.3123 5.8347 38.3524 5.89786C39.5324 7.49271 40.4073 9.04808 41.0414 10.564C45.4401 21.3647 37.4614 29.5679 37.4614 29.5679L37.6541 29.7416L37.638 29.7258Z" fill="#DC2526"/>
<path d="M12.0484 29.7651C11.4384 29.1256 1.34863 18.3643 11.2618 5.33711C11.3019 5.27394 11.334 5.20289 11.334 5.11604C11.334 4.89497 11.1494 4.71338 10.9166 4.71338C10.8284 4.71338 10.7481 4.74496 10.6839 4.79233H10.6758C7.63366 7.00301 2.28777 12.0797 0.216841 21.4593C-0.441361 25.7938 0.521862 29.5756 1.6697 32.2916C3.72458 31.2257 7.38483 30.3415 12.0484 29.7651Z" fill="#DC2526"/>
<path d="M24.723 30.46C14.2239 30.46 5.51475 31.8416 3.94952 33.6497C3.78898 33.8391 3.70068 34.0286 3.70068 34.2339C3.70068 36.3183 13.1162 38 24.723 38C36.3299 38 45.047 36.4367 45.7052 34.455C45.7293 34.3839 45.7454 34.305 45.7454 34.2339C45.7454 32.1496 36.3379 30.4679 24.723 30.4679V30.46Z" fill="#DC2526"/>
<path d="M14.312 32.9786C14.5288 32.6944 14.7937 32.5522 15.1147 32.5522C15.5482 32.5522 15.8693 32.7417 16.0699 33.1207C16.1823 33.3339 16.2465 33.5549 16.2465 33.7602H15.7007C15.6686 33.5944 15.6204 33.4681 15.5642 33.3813C15.4599 33.2312 15.3154 33.1523 15.1228 33.1523C14.9301 33.1523 14.7776 33.2549 14.6652 33.476C14.5448 33.6892 14.4886 33.9892 14.4886 34.3761C14.4886 34.7629 14.5529 35.0472 14.6733 35.2445C14.7937 35.4419 14.9381 35.5367 15.1228 35.5367C15.3074 35.5367 15.4519 35.4498 15.5482 35.284C15.6044 35.1893 15.6445 35.0629 15.6766 34.8814H16.2224C16.1743 35.2524 16.0539 35.5603 15.8612 35.7972C15.6686 36.0341 15.4198 36.1525 15.1147 36.1525C14.7455 36.1525 14.4565 35.9946 14.2398 35.6788C14.0311 35.363 13.9268 34.9208 13.9268 34.3682C13.9268 33.7681 14.0472 33.3102 14.288 32.9865L14.312 32.9786Z" fill="white"/>
<path d="M16.6958 36.0654V32.623H17.2416V33.9416H18.261V32.623H18.8069V36.0654H18.261V34.5258H17.2416V36.0654H16.6958Z" fill="white"/>
<path d="M21.215 33.2153H19.8745V33.9495H21.1026V34.5417H19.8745V35.4339H21.2792V36.0576H19.3447V32.6152H21.215V33.2153Z" fill="white"/>
<path d="M23.7434 35.7498C23.5427 36.0182 23.2618 36.1445 22.8845 36.1445C22.5073 36.1445 22.2263 36.0103 22.0337 35.7498C21.7688 35.4261 21.6323 34.9444 21.6323 34.3365C21.6323 33.7286 21.7608 33.2391 22.0337 32.9154C22.2263 32.6548 22.5153 32.5127 22.8845 32.5127C23.2537 32.5127 23.5427 32.6548 23.7434 32.9154C24.0083 33.2312 24.1447 33.7049 24.1447 34.3365C24.1447 34.9681 24.0083 35.4261 23.7434 35.7498ZM23.4063 35.2287C23.5347 35.0234 23.5989 34.7234 23.5989 34.3365C23.5989 33.9496 23.5347 33.6575 23.4063 33.4443C23.2778 33.2312 23.1012 33.1285 22.8845 33.1285C22.6678 33.1285 22.4992 33.2391 22.3708 33.4443C22.2504 33.6575 22.1781 33.9496 22.1781 34.3444C22.1781 34.7392 22.2504 35.0313 22.3708 35.2366C22.4992 35.4497 22.6758 35.5524 22.8845 35.5524C23.0932 35.5524 23.2778 35.4497 23.4063 35.2366V35.2287Z" fill="white"/>
<path d="M24.5625 32.6152H25.1324L26.1679 34.9917V32.6152H26.6736V36.0576H26.1277L25.0682 33.6179V36.0576H24.5625V32.6152Z" fill="white"/>
<path d="M28.9288 33.6893C28.8806 33.4525 28.7843 33.2946 28.6238 33.1998C28.5355 33.1446 28.4392 33.1209 28.3348 33.1209C28.1261 33.1209 27.9575 33.2314 27.8131 33.4367C27.6766 33.6499 27.6124 33.9657 27.6124 34.3841C27.6124 34.8026 27.6846 35.1105 27.8291 35.2842C27.9816 35.4658 28.1422 35.5526 28.3268 35.5526C28.5114 35.5526 28.6559 35.4816 28.7763 35.3473C28.8887 35.2052 28.9609 35.0236 28.993 34.8026H28.391V34.2183H29.4746V36.0658H29.1134L29.0572 35.6316C28.9529 35.7974 28.8566 35.9079 28.7763 35.9711C28.6318 36.0895 28.4552 36.1448 28.2385 36.1448C27.8933 36.1448 27.6124 35.9869 27.3876 35.6789C27.1629 35.3552 27.0425 34.9289 27.0425 34.3762C27.0425 33.8236 27.1629 33.3735 27.3957 33.0419C27.6284 32.7024 27.9335 32.5366 28.3107 32.5366C28.6398 32.5366 28.9127 32.6472 29.1134 32.8682C29.3141 33.0893 29.4265 33.3656 29.4586 33.6972H28.9208L28.9288 33.6893Z" fill="white"/>
<path d="M31.5295 32.6941C31.7141 32.7652 31.8586 32.9152 31.971 33.1283C32.0593 33.302 32.1235 33.4836 32.1556 33.6889C32.1877 33.8863 32.2118 34.0758 32.2118 34.2495C32.2118 34.7074 32.1476 35.0943 32.0031 35.418C31.8185 35.8522 31.5215 36.0654 31.1282 36.0654H30.0044V32.623H31.1282C31.2887 32.623 31.4251 32.6546 31.5295 32.702V32.6941ZM30.5422 33.2073V35.4653H31.0399C31.2967 35.4653 31.4733 35.2995 31.5777 34.9601C31.6338 34.7785 31.6579 34.5495 31.6579 34.3047C31.6579 33.9495 31.6178 33.681 31.5295 33.4915C31.4492 33.302 31.2887 33.2073 31.0399 33.2073H30.5422Z" fill="white"/>
<path d="M34.6282 35.7498C34.4275 36.0182 34.1465 36.1445 33.7693 36.1445C33.392 36.1445 33.1111 36.0103 32.9104 35.7498C32.6455 35.4261 32.5171 34.9444 32.5171 34.3365C32.5171 33.7286 32.6455 33.2391 32.9104 32.9154C33.1111 32.6548 33.392 32.5127 33.7693 32.5127C34.1465 32.5127 34.4275 32.6548 34.6282 32.9154C34.885 33.2312 35.0215 33.7049 35.0215 34.3365C35.0215 34.9681 34.885 35.4261 34.6282 35.7498ZM34.283 35.2287C34.4114 35.0234 34.4756 34.7234 34.4756 34.3365C34.4756 33.9496 34.4114 33.6575 34.283 33.4443C34.1546 33.2312 33.986 33.1285 33.7693 33.1285C33.5526 33.1285 33.384 33.2391 33.2556 33.4443C33.1191 33.6575 33.0629 33.9496 33.0629 34.3444C33.0629 34.7392 33.1271 35.0313 33.2556 35.2366C33.384 35.4497 33.5526 35.5524 33.7693 35.5524C33.986 35.5524 34.1626 35.4497 34.283 35.2366V35.2287Z" fill="white"/>
</g>
<defs>
<clipPath id="clip0_320_3938">
<rect width="153" height="38" fill="white"/>
</clipPath>
</defs>
</svg>
